<?xml version="1.0" encoding="UTF-8" standalone="no"?>
<!DOCTYPE svg PUBLIC "-//W3C//DTD SVG 1.1//EN" "http://www.w3.org/Graphics/SVG/1.1/DTD/svg11.dtd">
<svg width="100%" height="100%" viewBox="0 0 2000 2000" version="1.1" xmlns="http://www.w3.org/2000/svg" xmlns:xlink="http://www.w3.org/1999/xlink" xml:space="preserve" xmlns:serif="http://www.serif.com/" style="fill-rule:evenodd;clip-rule:evenodd;stroke-linejoin:round;stroke-miterlimit:2;">
    <g transform="matrix(1.507815,0,0,1.507815,-505.573718,-862.775045)">
        <path d="M508.587,1152.576L607.992,1152.576C607.992,1458.448 855.951,1706.407 1161.823,1706.407L1161.823,1805.812C801.05,1805.812 508.587,1513.349 508.587,1152.576Z" style="fill:rgb(0,222,206);"/>
    </g>
    <g transform="matrix(1.507815,0,0,1.507815,-505.573718,-862.775045)">
        <path d="M1161.823,665.015L1161.823,759.687C944.837,759.687 768.934,935.59 768.934,1152.576C768.934,1369.562 944.837,1545.465 1161.823,1545.465L1161.823,1640.137C892.551,1640.137 674.262,1421.848 674.262,1152.576C674.262,883.304 892.551,665.015 1161.823,665.015Z" style="fill:rgb(0,222,206);"/>
    </g>
    <g transform="matrix(1.507815,0,0,1.507815,-505.573718,-862.775045)">
        <path d="M1488.441,1152.576L1161.823,1152.576L1161.823,1479.194C981.437,1479.194 835.205,1332.962 835.205,1152.576C835.205,972.31 981.557,825.958 1161.823,825.958C1342.209,825.958 1488.441,972.19 1488.441,1152.576Z" style="fill:rgb(0,222,206);"/>
    </g>
</svg>
